<?xml version="1.0" encoding="UTF-8" standalone="no"?>
<svg width="640" xmlns="http://www.w3.org/2000/svg" xmlns:xlink="http://www.w3.org/1999/xlink" height="480">
 <defs>
  <filter id="filter3036">
   <feGaussianBlur id="feGaussianBlur3038" stdDeviation="1.595601"/>
  </filter>
  <linearGradient id="linearGradient4588" y2="564.38" xlink:href="#linearGradient3049" gradientUnits="userSpaceOnUse" x2="227.28" gradientTransform="matrix(2.263 .93215 -1.0265 2.055 198.91 -2325.5)" y1="564.38" x1="163.62"/>
  <linearGradient id="linearGradient4732" y2="556.5" xlink:href="#linearGradient2998" gradientUnits="userSpaceOnUse" x2="794.71" gradientTransform="translate(-419.21 -67.68)" y1="975.63" x1="783.05"/>
  <linearGradient id="linearGradient4734" y2="564.38" xlink:href="#linearGradient3049" gradientUnits="userSpaceOnUse" x2="227.28" gradientTransform="matrix(2.3398 .71802 -.83126 2.1415 -1023.7 -2176.4)" y1="564.38" x1="163.62"/>
  <linearGradient id="linearGradient4738" y2="564.38" xlink:href="#linearGradient3049" gradientUnits="userSpaceOnUse" x2="227.28" gradientTransform="matrix(2.4736 .15693 -.21671 2.2532 -1336.1 -2166.5)" y1="564.38" x1="163.62"/>
  <linearGradient id="linearGradient4736" y2="564.38" xlink:href="#linearGradient3049" gradientUnits="userSpaceOnUse" x2="227.28" gradientTransform="matrix(1.2613 1.3795 -1.5394 1.1721 -432.4 -1848.4)" y1="564.38" x1="163.62"/>
  <linearGradient id="linearGradient4584" y2="564.38" xlink:href="#linearGradient3049" gradientUnits="userSpaceOnUse" x2="227.28" gradientTransform="matrix(1.1278 1.4907 -1.6415 1.0241 757.2 -1944)" y1="564.38" x1="163.62"/>
  <linearGradient id="linearGradient4880" y2="-2266.3" gradientUnits="userSpaceOnUse" x2="728.56" gradientTransform="matrix(.15155 0 0 .26445 396.13 733.7)" y1="-1510.7" x1="728.56">
   <stop id="stop4876" stop-color="#fffffe" offset="0"/>
   <stop id="stop4878" stop-color="#fffffe" stop-opacity="0" offset="1"/>
  </linearGradient>
  <linearGradient id="linearGradient3049">
   <stop id="stop3051" stop-color="#638225" offset="0"/>
   <stop id="stop3053" stop-color="#bad681" offset="1"/>
  </linearGradient>
  <linearGradient id="linearGradient4577" y2="564.38" xlink:href="#linearGradient3049" gradientUnits="userSpaceOnUse" x2="227.28" gradientTransform="matrix(2.4483 .38590 -.42496 2.2233 -113.05 -2344.7)" y1="564.38" x1="163.62"/>
  <linearGradient id="linearGradient2998">
   <stop id="stop3000" stop-color="#be894f" offset="0"/>
   <stop id="stop3002" stop-color="#553b1f" offset="1"/>
  </linearGradient>
 </defs>
 <path id="rect4360" fill="#729fcf" d="m0.0525 0.5833v230.94h66.438c18.261 5.6757 40.183 8.9977 63.75 8.9977 21.585 0 41.785-2.7729 59.062-7.6008 20.923 13.608 55.071 22.474 93.656 22.474 39.87 0 75.045-9.4891 95.75-23.871h4.1562c22.959 9.7024 53.402 15.612 86.781 15.612s63.822-5.9105 86.781-15.612h59.5c21.136 12.288 53.557 20.173 89.906 20.173 34.711 0 65.801-7.2228 86.938-18.571 19.419 6.9543 43.687 11.134 70.031 11.134 28.373 0 54.351-4.7881 74.438-12.736h61.781v-230.94h-998.97z"/>
 <rect id="rect4864" stroke-opacity=".984" height="184.56" width="997.68" y="15.108" x="1" stroke-width="5" fill="url(#linearGradient4880)"/>
 <path id="path4744" stroke-linejoin="round" d="m332.05 255.49c-0.046783 0.004013-0.11453 0.024643-0.20639 0.062088-1.683 0.68616-4.256 2.141-7.1197 3.9218 1.4424-1.2967 2.4416-2.3458 2.6945-2.9374 0.070068-0.16388-0.25507-0.053741-0.8111 0.23672-0.026672-0.039673-0.11609-0.02771-0.27829 0.045258-0.94784 0.42639-2.1704 1.127-3.5533 2.0048 0.050903-0.13074 0.079529-0.24622 0.084229-0.34406 0.010864-0.22632-0.82095 0.23895-1.9022 1.0128 0.56061-0.67255 0.92551-1.2162 1.0255-1.5793 0.12314-0.44733-2.4705 1.2189-4.6128 3.0344 0.20904-0.42389 0.31387-0.76428 0.28653-0.99982-0.041077-0.35431-1.9885 1.0851-3.6294 2.7111-0.16626-0.060364-0.56958 0.20786-1.0454 0.65445 0.031921-0.29904-0.000977-0.53586-0.11108-0.69714-0.049438-0.072449-0.19244-0.031982-0.39792 0.09314 0.15094-0.39798 0.13635-0.62015-0.10077-0.51483-0.38238 0.16986-0.82236 0.45499-1.3012 0.82913 0.64813-1.2918 0.84238-2.4482 0.39371-2.1756-0.28635 0.17398-0.59384 0.42502-0.91669 0.73856 0.36984-1.3086 0.30585-2.4221-0.091034-2.1019-0.46698 0.37671-0.95001 1.0122-1.4262 1.8083 0.001404-0.012665 0.00415-0.026093 0.005524-0.038788 0.1835-1.687-0.48068-3.4105-0.84839-2.9297-0.52634 0.68826-0.86636 1.9403-1.0631 3.4134-0.35635-0.93893-0.77588-1.6634-1.2535-2.0074-0.36468-0.2627-0.69815 1.1187-0.52139 2.4951-0.08902-0.087067-0.17828-0.16641-0.26682-0.23926-0.14621-0.47192-0.36304-0.72098-0.58765-0.56525-0.35971 0.24942-0.69821 0.63635-1.0081 1.1279-0.26492-1.5371-1.0127-2.8509-1.3709-2.477-0.22867 0.23868-0.42178 0.56415-0.57724 0.96359-0.64926-1.5117-1.7006-2.7378-1.9486-2.3192-0.29184 0.49249-0.38156 1.2756-0.32031 2.2351-0.009125-0.014343-0.014984-0.029663-0.0242-0.043976-1.2264-1.902-3.6115-3.7108-3.6808-3.1185-0.099182 0.84781 0.54291 2.2938 1.5653 3.9605-1.2914-0.98556-2.4813-1.7235-3.4152-2.0294-0.7132-0.23358 0.049194 1.3536 1.4832 2.8534-0.59372-0.25235-1.1334-0.4331-1.591-0.52515-0.37799-0.076019-0.26938 0.2731 0.15744 0.811-1.3256-0.54394-2.3747-0.83481-2.3257-0.5976 0.046143 0.22345 0.2377 0.50266 0.54758 0.82782-2.44-0.96506-4.9611-1.6343-4.7236-1.2753 0.27954 0.42239 1.1099 1.0131 2.2994 1.7009-0.026184-0.008484-0.051727-0.017365-0.078033-0.025848-3.4894-1.1264-8.0542-1.9363-7.4297-1.4888 0.89401 0.64066 3.245 1.5589 6.2492 2.5572-2.4798-0.44302-4.5629-0.72708-5.8785-0.75018-1.0046-0.0177 1.6375 0.97876 4.8672 1.7668-0.9043-0.057037-1.6656-0.07489-2.2422-0.044006-0.80856 0.043365 1.2555 0.68277 3.999 1.243 0.11676 0.15747 0.39145 0.34341 0.79456 0.55106-0.057251 0.002991-0.11426 0.006836-0.16913 0.010315-2.3209-0.40939-4.5541-0.62265-4.2718-0.41132 0.18774 0.14056 0.53006 0.29987 1.0028 0.4747-2.6527-0.33273-5.1731-0.46194-4.7371-0.2561 0.51297 0.24222 1.5929 0.52725 3.0318 0.8317-0.027191-0.00235-0.055023-0.005432-0.082336-0.007751-3.6235-0.30981-7.917-0.28107-7.1037-0.064667 1.1644 0.30975 3.7108 0.62262 6.8495 0.90799-2.3354 0.013763-4.238 0.084259-5.335 0.23022-0.83765 0.11151 2.0024 0.43863 5.1856 0.55878-0.78156 0.073456-1.4203 0.15619-1.8736 0.24707-0.85867 0.17209 3.3201 0.41519 6.9801 0.29877-1.1216 0.14581-1.9922 0.29547-2.5134 0.44754-0.56058 0.16357 1.8994 0.23569 4.6628 0.12677-0.8707 0.17758-1.5268 0.3483-1.8963 0.50833-0.04068 0.017609-0.056671 0.03418-0.04895 0.047852-1.0554 0.34628-1.7753 0.7782-2.1954 1.2469-1.4675 0.27512-2.3937 0.51614-2.096 0.58594 0.34753 0.081451 0.92963 0.12167 1.6897 0.12805-0.018402 0.069733-0.030426 0.13944-0.037415 0.20953-3.5758 0.63766-6.815 1.4303-6.1234 1.4849 0.55139 0.043518 1.4378 0.011414 2.5811-0.078918-3.7499 0.82681-7.0308 1.7634-6.1784 1.7488 0.5441-0.009369 1.3053-0.074249 2.2479-0.19016-3.7429 0.98456-6.8541 2.015-5.8782 1.9311 0.84854-0.072937 2.0965-0.26929 3.6282-0.55618-22.511 6.4287-46.229 13.284-63.473 17.992-2.2815 0.60202-4.4061 1.1764-6.4564 1.741-1.8533 0.49292-3.6113 0.95474-5.234 1.3711 0.001785 0.030121 0.003372 0.056183 0.00528 0.085358-0.038208 0.010742-0.076385 0.021606-0.11461 0.032349 0.29452 1.6168 0.79312 2.0891 3.4737 2.8404 0.068527-0.021454 0.14236-0.044434 0.21117-0.065979 0.008331 0.002655 0.01503 0.005127 0.023407 0.007782 0.21344-0.072021 0.43501-0.14645 0.65437-0.21991 3.3445-1.0459 6.9992-2.1877 11.065-3.5156-0.026215-0.003998-0.051712-0.007568-0.077545-0.011658 0.20184-0.062958 0.40347-0.12665 0.60741-0.19012 0.021408 0.003693 0.041763 0.008026 0.063385 0.011627 1.2148-0.38992 2.4691-0.78821 3.7524-1.1926 15.288-4.7034 35.264-10.562 54.026-16.199 1.1963-0.26346 3.8932-1.0561 6.5351-1.9712-0.6922 0.37778-1.2077 0.6976-1.4945 0.94162-0.54398 0.46295 4.6858-1.2345 8.477-2.8896-0.89896 0.56396-1.5115 1.0229-1.7281 1.3284-0.17453 0.24618 1.4131-0.27313 3.4027-1.0788 0.35562-0.013885 0.81824-0.07135 1.369-0.16425-0.10571 0.14194-0.16782 0.26462-0.17972 0.36475-0.002106 0.0177 0.008331 0.030029 0.025909 0.037506-2.6348 1.093-4.6439 2.1269-3.9374 2.0385 0.61618-0.077118 1.4987-0.27753 2.5789-0.57428-2.9633 1.3755-5.3245 2.7423-4.4615 2.561 0.55084-0.11575 1.2656-0.31891 2.111-0.595-2.7835 1.4937-4.8638 2.8971-3.9492 2.6387 1.0761-0.30411 2.6579-0.92401 4.5426-1.7449-0.02536 0.015228-0.050262 0.029968-0.075592 0.045258-3.3647 2.028-6.153 4.3973-4.9537 3.9295 1.7169-0.66971 4.3677-2.1028 7.3337-3.861-1.5231 1.2888-2.5878 2.3337-2.8813 2.9271-0.22412 0.45312 2.6719-1.1443 5.1681-2.9128-0.30154 0.42538-0.48337 0.77148-0.51233 1.0141-0.051666 0.43268 3.0806-1.607 5.1998-3.526 0.086548-0.035492 0.17538-0.075409 0.26569-0.11899-0.22556 0.49231-0.30771 0.87573-0.21191 1.1136 0.056763 0.14105 0.51273-0.09848 1.1374-0.54971-0.3508 1.0492-0.35464 1.8057 0.066528 1.5858 0.44183-0.23074 0.9198-0.60568 1.4191-1.0917-0.41248 1.6164-0.27823 3.0402 0.21564 2.68 0.31525-0.22989 0.63434-0.55466 0.95032-0.95715-0.043793 1.6201 0.41507 2.9762 0.82547 2.561 0.48288-0.4884 0.89902-1.2937 1.2534-2.2946 0.00238 0.015594 0.003662 0.030975 0.006104 0.04657 0.32608 2.0705 1.7659 4.1341 2.0844 3.5247 0.4559-0.87234 0.483-2.4219 0.24594-4.2322 0.77957 1.1243 1.5689 1.9841 2.3072 2.3748 0.56381 0.29834 0.53809-1.4092-0.15384-3.0784 0.44449 0.3085 0.866 0.53864 1.2525 0.67001 0.61533 0.20917 0.22925-1.3646-0.78458-2.8624 0.00589-0.00354 0.011353-0.007294 0.016754-0.011627 0.11987-0.095856 0.22055-0.21805 0.29831-0.36215 0.37439 0.15503 0.72235 0.26706 1.0382 0.32465 0.041992 0.00766 0.077423 0.008636 0.10837 0.003876 0.71558 0.66324 1.4384 1.0992 1.5698 0.90024 0.13693-0.20734 0.16623-0.50314 0.10773-0.86533 1.1982 0.9888 2.6531 1.7734 2.7094 1.4836 0.035919-0.185-0.015472-0.42444-0.1423-0.70752 1.4981 0.92712 3.1467 1.6181 3.0838 1.3116-0.073975-0.36069-0.50168-0.89047-1.1639-1.5198 0.016632 0.008423 0.03299 0.017426 0.049744 0.025879 2.2218 1.1188 5.3359 2.041 5.0152 1.6401-0.45902-0.57394-1.9056-1.4581-3.8096-2.4446 1.6909 0.50336 3.1384 0.85397 4.1018 0.94809 0.73575 0.071869-0.90051-0.89243-3.0367-1.7203 0.64938 0.098236 1.2059 0.15649 1.641 0.16425 0.82434 0.014679-1.8773-1.1588-4.6423-1.8509 0.9809 0.099762 1.7882 0.13922 2.3463 0.099579 0.60028-0.042633-1.0768-0.66037-3.1899-1.1615 0.28842 0.004028 0.55579 0.002258 0.80386-0.003876 1.8209 0.34753 3.4924 0.49655 3.5281 0.28195 0.057343-0.34488-0.53497-0.78989-1.5547-1.2844 3.09 0.64526 7.5895 0.97955 7.3872 0.66742-0.16565-0.25558-0.79654-0.55112-1.7582-0.87048 3.5305 0.37958 7.6083 0.46246 7.1934 0.20306-0.29471-0.18433-0.9097-0.3808-1.7736-0.58334 3.5767 0.13648 7.0078 0.041748 6.4374-0.16168-0.36408-0.12988-0.95166-0.25836-1.722-0.38416 3.793-0.022308 7.244-0.25168 6.497-0.41779-0.87884-0.19544-2.5421-0.35535-4.7009-0.48248 0.038025-0.001404 0.075073-0.002411 0.11322-0.003876 5.0629-0.19296 10.74-0.86661 9.4836-0.98819-1.7988-0.17407-5.4358-0.14545-9.8354 0.002594 3.0887-0.3641 5.557-0.72516 6.8938-1.0529 1.0208-0.25028-3.0179-0.19534-7.3414 0.14487 0.97739-0.19916 1.7596-0.38648 2.287-0.55618 0.83816-0.26968-3.0708-0.066101-7.1638 0.40613-0.25116-0.017944-0.52484-0.033417-0.82162-0.046539 3.9432-0.39322 7.4204-0.9418 6.552-1.0193-1.0216-0.091095-2.8469-0.070923-5.1665 0.025879 0.03891-0.005035 0.080719-0.009155 0.11972-0.014221 4.6903-0.60998 9.6946-1.6287 9.5675-1.8044-0.013123-0.018158-0.084229-0.025787-0.2132-0.024567-1.9694 0.018768-5.7452 0.40045-10.253 0.9675 3.0248-0.6344 5.4048-1.2045 6.6223-1.6336 0.85846-0.30255-2.6419 0.056122-6.5884 0.6907 3.6161-0.88925 6.9549-1.983 5.9177-1.8664-1.6107 0.181-4.5368 0.77316-7.9792 1.5573 2.1914-0.70538 3.8824-1.3112 4.6834-1.7177 0.61166-0.31046-2.619 0.36166-5.8332 1.2482 0.6207-0.27316 1.0927-0.50888 1.3738-0.6933 0.43982-0.28864-2.4583 0.42499-5.3283 1.3336-0.1803-0.019501-0.40164-0.024292-0.66199-0.015503 0.24017-0.14749 0.42331-0.27771 0.53448-0.38547 0.18185-0.17627-0.92535 0.099731-2.4305 0.57816-0.23273 0.033539-0.4744 0.070038-0.72754 0.11127 0.038635-0.031372 0.073486-0.062805 0.10251-0.091827 0.014893-0.014923 0.020599-0.026276 0.018036-0.036224 3.4234-1.1092 6.8428-2.6166 6.0705-2.5934-0.67798 0.020355-1.7816 0.21817-3.1754 0.54456 3.386-1.3399 6.5218-2.9517 5.6551-2.8327-0.61591 0.084564-1.4919 0.29578-2.5599 0.60403 2.8888-1.4018 5.1709-2.787 4.3137-2.596-0.54721 0.12198-1.2522 0.33228-2.0848 0.617 2.6989-1.5165 4.6948-2.9327 3.7911-2.6646-1.0633 0.31552-2.615 0.94949-4.4562 1.7876 0.024475-0.015411 0.048767-0.029785 0.073242-0.045258 2.9926-1.8929 5.4706-4.0675 4.9187-4.0201zm-12.158 15.94c-0.011047 0.006805-0.020111 0.014099-0.02951 0.020721-0.012878-0.002594-0.026855-0.005188-0.039886-0.007782 0.023834-0.004456 0.045349-0.008423 0.069397-0.012939zm-9.3686 3.4083c0.11706 0.020996 0.24033 0.04248 0.36713 0.064667-0.10803 0.017426-0.18799 0.044525-0.23425 0.0802-0.043579-0.052277-0.088867-0.10083-0.13287-0.14487z" filter="url(#filter3036)" stroke-linecap="round" fill="#e9b96e"/>
 <path id="path4898" opacity=".577" d="m280.27 223.25c6.8341 1.8117 12.859-6.0193 19.593-2.6748 4.6584 1.8444 10.684 5.8405 15.605 2.6748" stroke="#fffeff" fill="none"/>
 <path id="path4918" stroke-linejoin="round" d="m205.86 261.91c-0.034775-0.000488-0.086273 0.009674-0.15678 0.030457-1.292 0.38107-3.2974 1.2629-5.5413 2.3635 1.1599-0.84918 1.9746-1.5486 2.205-1.9661 0.063828-0.11566-0.18411-0.058563-0.61568 0.11435-0.016739-0.031219-0.083557-0.029022-0.20857 0.012726-0.73061 0.24408-1.6841 0.66992-2.7691 1.2147 0.047241-0.092621 0.076904-0.17566 0.087646-0.24747 0.024811-0.16605-0.62312 0.1153-1.4779 0.60565 0.46332-0.45438 0.77275-0.82819 0.87341-1.0885 0.12402-0.32071-1.9122 0.71545-3.6268 1.8953 0.18562-0.29709 0.28818-0.54031 0.28552-0.71603-0.003998-0.26434-1.5469 0.65259-2.8776 1.7298-0.11812-0.056854-0.43544 0.11102-0.81943 0.40503 0.045715-0.21817 0.039047-0.39523-0.030167-0.52234-0.031082-0.057098-0.13956-0.037872-0.30037 0.039124 0.14087-0.28226 0.14659-0.44714-0.036087-0.38708-0.29459 0.096863-0.64017 0.27448-1.0211 0.5148 0.57381-0.90445 0.80287-1.7428 0.4518-1.5751-0.22408 0.10706-0.46947 0.26935-0.73079 0.47662 0.36986-0.93762 0.40532-1.7634 0.088867-1.5567-0.3723 0.24313-0.77568 0.67593-1.186 1.2276 0.001999-0.009216 0.005005-0.018921 0.006958-0.028198 0.26054-1.2304-0.10132-2.5506-0.40814-2.2234-0.43921 0.46848-0.78288 1.3665-1.0373 2.4382-0.19308-0.71881-0.44868-1.2842-0.77534-1.5733-0.24944-0.22082-0.59787 0.7731-0.56969 1.8012-0.059174-0.070801-0.1191-0.13599-0.179-0.19626-0.072769-0.35886-0.21417-0.55859-0.39137-0.46042-0.28377 0.15723-0.5621 0.41742-0.82712 0.7569-0.081268-1.1532-0.53514-2.1775-0.82709-1.9283-0.18636 0.15906-0.35292 0.38477-0.49721 0.66776-0.36656-1.1629-1.0508-2.1451-1.2648-1.8548-0.25176 0.34152-0.37605 0.91232-0.4021 1.6244-0.005661-0.01123-0.00885-0.02301-0.014603-0.034241-0.76317-1.4936-2.3877-3.0045-2.4828-2.5728-0.13606 0.61783 0.23009 1.7318 0.86031 3.0367-0.87912-0.82263-1.7018-1.4551-2.3678-1.75-0.50858-0.22516-0.064178 1.0018 0.88197 2.2142-0.41907-0.23016-0.80366-0.4035-1.1342-0.50534-0.2731-0.084106-0.21893 0.18143 0.055878 0.60974-0.93712-0.49951-1.6892-0.79187-1.6706-0.61331 0.017441 0.16821 0.13797 0.38831 0.34233 0.65109-1.7276-0.89276-3.5371-1.5734-3.3885-1.2911 0.17476 0.33224 0.74326 0.82947 1.5694 1.4249-0.018677-0.008179-0.03685-0.016632-0.055618-0.024841-2.4895-1.0897-5.7956-2.0257-5.3683-1.6493 0.61171 0.53876 2.2772 1.3904 4.4184 2.3495-1.7958-0.51077-3.3108-0.87485-4.2792-0.98953-0.7395-0.087616 1.1349 0.84329 3.458 1.6642-0.66261-0.10916-1.2227-0.17883-1.6502-0.19885-0.59946-0.028046 0.87517 0.59665 2.8567 1.2134 0.074417 0.12479 0.26315 0.28229 0.54503 0.4653-0.04245-0.002045-0.084778-0.003418-0.1255-0.004944-1.681-0.47415-3.312-0.79718-3.1196-0.62036 0.12801 0.11758 0.36862 0.26044 0.70425 0.42447-1.9314-0.44226-3.7804-0.72464-3.4742-0.54047 0.36029 0.21668 1.1355 0.50705 2.174 0.83835-0.019882-0.003784-0.040176-0.008087-0.060135-0.011841-2.649-0.49741-5.8173-0.79489-5.2335-0.57495 0.83568 0.31482 2.6901 0.73453 4.9835 1.178-1.7232-0.16318-3.1314-0.25244-3.9512-0.2262-0.62596 0.02002 1.4441 0.47205 3.7825 0.79694-0.58177-0.003845-1.0589 0.009766-1.3999 0.043121-0.64597 0.063171 2.4175 0.55261 5.125 0.73843-0.83788 0.024261-1.491 0.070007-1.8866 0.14346-0.42552 0.07901 1.3832 0.31482 3.429 0.43958-0.65524 0.066315-1.1518 0.14349-1.4361 0.2341-0.031296 0.009979-0.044327 0.020996-0.039642 0.031647-0.80394 0.17703-1.3669 0.44211-1.7115 0.75653-1.1025 0.093933-1.8034 0.20294-1.5891 0.27649 0.25024 0.085876 0.67651 0.15872 1.2365 0.21985-0.018738 0.050079-0.032791 0.10059-0.043137 0.15173-2.6842 0.2048-5.1316 0.54889-4.6257 0.64047 0.40337 0.073029 1.0594 0.11511 1.9092 0.13339-2.8266 0.33136-5.3155 0.7785-4.6859 0.83096 0.40193 0.033478 0.96803 0.042114 1.6718 0.026642-2.8331 0.44821-5.2038 0.97717-4.478 0.98773 0.63113 0.009155 1.566-0.042969 2.7168-0.14084-17.077 3.0697-35.076 6.3646-48.142 8.5562-1.7271 0.2746-3.3365 0.5405-4.8903 0.8046-1.4032 0.22592-2.7339 0.436-3.9614 0.62256-0.000916 0.022339-0.001686 0.041656-0.002449 0.063324-0.028976 0.005096-0.05793 0.010254-0.086906 0.01535 0.097168 1.2141 0.42979 1.5994 2.3507 2.3524 0.052124-0.010712 0.10828-0.022186 0.16061-0.032959 0.005951 0.002563 0.010719 0.004883 0.016685 0.007446 0.16275-0.037231 0.33166-0.075684 0.49887-0.11356 2.5439-0.52301 5.3237-1.0938 8.4203-1.7712-0.019028-0.004883-0.037567-0.00943-0.056313-0.014343 0.15352-0.031433 0.30692-0.063446 0.46202-0.095123 0.015518 0.004303 0.030205 0.009033 0.045891 0.013306 0.92477-0.19739 1.8792-0.39798 2.8556-0.60089 11.623-2.3336 26.788-5.171 41.042-7.9354 0.90172-0.10547 2.9493-0.48981 4.9654-0.96854-0.53848 0.2272-0.9424 0.42477-1.172 0.58344-0.4355 0.301 3.547-0.56253 6.4655-1.5016-0.70476 0.34915-1.1905 0.64209-1.3729 0.85132-0.14697 0.16861 1.0623-0.096497 2.5893-0.54294 0.26328 0.016144 0.60867 0.008148 1.0217-0.019501-0.088486 0.096832-0.14337 0.18268-0.15959 0.25562-0.002869 0.012909 0.003906 0.022766 0.016327 0.029602-2.024 0.61038-3.5824 1.2237-3.0548 1.2109 0.4601-0.011108 1.1257-0.093414 1.9444-0.23206-2.2872 0.7944-4.1299 1.627-3.48 1.5574 0.41481-0.044434 0.95697-0.1412 1.6009-0.28204-2.1634 0.8949-3.8017 1.7754-3.1081 1.6526 0.81609-0.14438 2.0285-0.4841 3.4793-0.94952-0.019821 0.009338-0.039291 0.018372-0.059113 0.027771-2.6317 1.2457-4.8637 2.7859-3.9446 2.53 1.3158-0.36639 3.3769-1.2264 5.6946-2.3028-1.2188 0.83731-2.0815 1.5288-2.342 1.9446-0.1989 0.3175 2.0552-0.64554 4.0272-1.7644-0.25394 0.29129-0.4137 0.53302-0.45306 0.70978-0.070221 0.31522 2.3909-0.95639 4.0961-2.2141 0.066467-0.019775 0.13493-0.042603 0.20477-0.068024-0.20288 0.34628-0.29192 0.62292-0.23894 0.80548 0.031403 0.10822 0.38541-0.034576 0.87955-0.32092-0.33656 0.74765-0.39554 1.3052-0.068649 1.1743 0.34294-0.13736 0.72324-0.37833 1.1275-0.69968-0.42415 1.1614-0.43083 2.2212-0.039917 1.9923 0.24954-0.14612 0.50894-0.36191 0.77184-0.63525-0.15254 1.1914 0.085159 2.2255 0.41861 1.9498 0.39235-0.32434 0.75897-0.8873 1.0946-1.5991 0.00058 0.011688 0.000381 0.023102 0.001038 0.03479 0.086777 1.5511 0.99535 3.1796 1.2754 2.7538 0.40094-0.60944 0.53595-1.7501 0.49548-3.1026 0.49142 0.88693 1.0097 1.5796 1.5251 1.9225 0.39362 0.26184 0.50139-0.99918 0.11505-2.2815 0.30489 0.26047 0.59862 0.46146 0.87387 0.58707 0.43822 0.19989 0.27034-0.98932-0.36609-2.169 0.004593-0.002167 0.008896-0.004547 0.013214-0.007355 0.095505-0.061768 0.17882-0.14441 0.24686-0.2449 0.26457 0.14212 0.51286 0.25055 0.74146 0.31644 0.03038 0.008789 0.056427 0.012146 0.079605 0.010925 0.47846 0.54218 0.97914 0.9173 1.0908 0.78036 0.11636-0.14273 0.15993-0.35867 0.14366-0.6301 0.81016 0.81808 1.8248 1.5046 1.8878 1.2951 0.040237-0.13373 0.020096-0.31412-0.052414-0.53229 1.0359 0.79486 2.2003 1.4268 2.1767 1.196-0.027786-0.27145-0.30386-0.69385-0.7455-1.2071 0.011642 0.007446 0.023041 0.01532 0.03476 0.022766 1.5554 0.98996 3.7833 1.9011 3.5766 1.5817-0.29588-0.45731-1.297-1.2167-2.6278-2.0854 1.2096 0.4967 2.2509 0.86267 2.9544 1.0036 0.5372 0.1076-0.59782-0.72492-2.1116-1.494 0.47156 0.12064 0.87761 0.2049 1.1979 0.24292 0.6068 0.072021-1.2984-0.9938-3.2859-1.7095 0.71591 0.14636 1.3083 0.23541 1.7228 0.24759 0.44582 0.013123-0.745-0.5669-2.2661-1.0933 0.21239 0.024384 0.40967 0.042908 0.59306 0.056824 1.317 0.39145 2.5385 0.62537 2.5808 0.46979 0.067886-0.25006-0.33585-0.62219-1.0511-1.0625 2.2307 0.7052 5.5239 1.2857 5.3979 1.0405-0.10316-0.20078-0.54646-0.46555-1.2319-0.7724 2.5752 0.54193 5.5761 0.90573 5.2895 0.68368-0.20364-0.15781-0.64258-0.34836-1.2646-0.56183 2.6274 0.36615 5.1646 0.55093 4.759 0.35858-0.25884-0.12277-0.6826-0.26114-1.2414-0.4111 2.7987 0.26511 5.3605 0.35211 4.822 0.17416-0.63354-0.20935-1.8482-0.45071-3.4307-0.70468 0.028137 0.00177 0.055527 0.003784 0.083771 0.005524 3.7478 0.23352 7.9842 0.15814 7.0667-0.02478-1.3135-0.2619-3.9977-0.51071-7.2529-0.72812 2.3047-0.039246 4.1517-0.12225 5.1617-0.26471 0.7713-0.1088-2.211-0.36807-5.4244-0.43811 0.73554-0.07431 1.3263-0.15436 1.7278-0.24036 0.63809-0.13669-2.2596-0.2767-5.3128-0.23224-0.18385-0.031921-0.38454-0.063629-0.60242-0.095337 2.937 0.002716 5.5418-0.14374 4.9072-0.26529-0.74661-0.14298-2.0941-0.26361-3.8118-0.36438 0.029053-0.000824 0.060196-0.000763 0.08934-0.001617 3.504-0.10165 7.2698-0.48142 7.1892-0.62042-0.008347-0.014374-0.060196-0.025269-0.1554-0.033936-1.4536-0.13232-4.2663-0.13113-7.6326-0.047577 2.2776-0.24332 4.075-0.48709 5.0046-0.71314 0.65549-0.15939-1.9523-0.15472-4.9096 0.020294 2.7325-0.38733 5.2758-0.94604 4.5023-0.9371-1.2012 0.013947-3.4029 0.2334-5.9995 0.55615 1.6683-0.35748 2.9602-0.67871 3.5811-0.91904 0.47409-0.18353-1.9582 0.072296-4.3942 0.48746 0.47801-0.15536 0.84358-0.29416 1.0645-0.40927 0.34576-0.18024-1.8443 0.13092-4.0281 0.58789-0.13152-0.027802-0.2944-0.047729-0.48703-0.060608 0.18806-0.090912 0.33278-0.17334 0.42276-0.24454 0.14719-0.11649-0.68979 0.004852-1.8352 0.24594-0.17412 0.007446-0.35501 0.016418-0.54474 0.028015 0.030807-0.020264 0.058838-0.040833 0.082382-0.06012 0.012115-0.009888 0.017151-0.017822 0.016006-0.02536 2.6068-0.56381 5.2402-1.4216 4.6689-1.4618-0.50145-0.035309-1.33 0.028656-2.382 0.16589 2.5963-0.73676 5.0284-1.6926 4.3804-1.6691-0.46045 0.016663-1.1221 0.10739-1.9325 0.25543 2.2343-0.81928 4.02-1.6714 3.3737-1.5941-0.41257 0.049286-0.94803 0.15207-1.5832 0.3002 2.1027-0.91794 3.6797-1.8141 2.9934-1.6834-0.80746 0.15372-1.9988 0.50604-3.4188 0.9874 0.01918-0.009583 0.038162-0.018372 0.057343-0.027954 2.3473-1.1738 4.336-2.5934 3.9255-2.5994zm-10.148 10.852c-0.008667 0.004211-0.015884 0.008911-0.0233 0.013092-0.009323-0.002838-0.019424-0.005829-0.028839-0.008698 0.017899-0.001526 0.034058-0.002838 0.052139-0.004395zm-7.1615 1.8179c0.084747 0.02417 0.17404 0.049133 0.26592 0.074951-0.080963 0.004822-0.14194 0.01886-0.1787 0.041748-0.028244-0.041809-0.05806-0.080994-0.087219-0.1167z" filter="url(#filter3036)" stroke-linecap="round" fill="#e9b96e"/>
 <g id="g4713">
  <g stroke-linejoin="round" stroke-linecap="round">
   <path id="path4602" opacity=".88" d="m110.43 45.949c-0.094048-0.002853-0.20845 0.091286-0.34843 0.28332-2.1376 2.9323-4.7281 8.9805-7.3357 16.334 0.64243-5.2451 0.84039-9.4613 0.34142-11.785-0.38106-1.7746-3.1442 4.95-4.8173 12.238-0.18005-1.6864-0.45261-3.0417-0.83397-3.9714-0.7225-1.7613-3.4109 7.8863-3.8736 16.012-0.49034-2.3795-1.0858-4.186-1.7976-5.2074-0.76557-1.0986-1.9371 4.5159-2.1657 10.63-0.75027-1.7828-1.5292-3.0882-2.3335-3.76-0.25722-0.21484-0.48764 0.035545-0.67152 0.62701-1.3618-3.4286-2.7926-5.7904-3.2213-5.0298-0.59965 1.0638-0.84002 2.9464-0.80801 5.4056-2.5097-6.4977-6.4828-12.87-6.8359-11.421-0.25094 1.0296-0.20651 2.5857 0.076721 4.5258-3.291-5.791-7.1215-10.629-7.1447-9.1253-0.014839 0.95958 0.20298 2.2482 0.62097 3.8032-3.994-5.6082-8.266-10.041-7.9938-8.3922 0.32018 1.9397 1.5626 4.9392 3.414 8.5773-0.043663-0.052406-0.079422-0.10622-0.12332-0.1587-5.8235-6.9649-13.734-13.322-12.8-11.053 1.337 3.2489 5.1904 8.6029 10.192 14.718-4.2961-3.4626-7.9438-6.0017-10.316-6.9573-1.8117-0.72965 2.5329 5.1416 8.0353 10.529-1.6127-0.82784-2.9825-1.3998-4.0405-1.6478-2.0043-0.46999 4.9949 7.0104 11.969 11.981-2.417-0.99361-4.3893-1.5865-5.7269-1.6429-1.4387-0.060631 2.8728 4.0052 8.1916 7.657-2.0402-0.46175-3.6734-0.62778-4.7543-0.4167-0.8764 0.17117 1.0345 1.8957 4.0617 3.8855 0.64746 0.94189 1.5408 1.99 2.6479 3.1125-6.369-3.4632-15.272-6.0172-14.691-4.6771 0.47575 1.0973 1.8749 2.4832 3.929 4.0501-7.0594-2.4815-14.994-3.8824-14.034-2.7048 0.68216 0.83681 1.9856 1.8129 3.7798 2.8726-7.0011-1.4907-13.573-1.9949-12.346-1.0078 0.78315 0.63009 1.9871 1.3149 3.5536 2.0337-7.323-0.89176-13.854-0.84217-12.308 0.036812 1.8187 1.0342 5.1321 2.1256 9.385 3.2099-0.072693-0.004028-0.14555-0.011581-0.21846-0.015472-9.6755-0.51715-20.248 0.79118-17.744 1.6187 3.5851 1.1846 10.61 2.0042 19.029 2.5346-5.7528 0.70097-10.308 1.558-12.694 2.5632-1.8222 0.7676 5.954 1.5823 14.11 1.3002-1.7694 0.5681-3.1659 1.1433-4.0828 1.7065-1.7371 1.0671 9.1607 1.1103 17.962-0.44752-2.4477 1.011-4.2626 1.9724-5.2093 2.8507-1.0182 0.94473 5.2386 0.62248 11.836-0.65572-1.7545 1.0969-2.9966 2.107-3.5495 2.9826-0.779 1.2338 7.9836-0.23367 14.807-2.8588-3.2852 2.3952-5.4916 4.5408-5.8712 6.1196-0.23957 0.99622 4.4307-0.077286 9.1881-2.0751-2.7118 4.9578-4.3012 10.661-3.0472 10.38 1.514-0.33876 3.4682-1.9638 5.6455-4.4143-2.8517 6.3349-4.3451 14.788-2.9734 14.028 1.1233-0.62219 2.4282-2.1225 3.8362-4.2456-1.6879 6.7805-2.0719 14.157-0.93044 13.085 0.81109-0.76129 1.6705-2.1126 2.5651-3.9121-0.62079 6.552-0.23052 12.547 0.66614 11.27 0.57236-0.81523 1.1438-2.0193 1.7008-3.5538 0.075134 6.7348 1.0658 12.592 1.7996 11.048 0.86342-1.817 1.5692-4.9848 2.1404-8.9967 0.005974 0.065979 0.012039 0.12921 0.018204 0.19537 0.81679 8.7808 3.7388 18.041 4.2802 15.645 0.77511-3.43 0.67528-9.881 0.051765-17.536 1.5801 5.0417 3.1513 8.9855 4.5822 10.95 1.0927 1.5 0.87592-5.6335-0.59191-12.908 0.86859 1.4881 1.683 2.6428 2.425 3.3662 1.4056 1.3704-0.10152-8.4291-3.0459-16.056 1.446 2.0185 2.7539 3.4806 3.842 4.1747 1.1704 0.74651-0.063629-4.8116-2.3906-10.509 1.4404 1.3807 2.7104 2.3114 3.7395 2.6524 1.45 0.48035-1.3956-7.1196-5.2166-12.781 1.5246 1.2548 2.946 2.272 4.2054 2.9941 0.007553 0.004311 0.013664 0.011642 0.021217 0.015938 3.0268 2.1827 5.6828 3.4914 5.7838 2.6767 0.17442-1.4062-0.83742-3.6029-2.624-6.2412 5.5831 4.436 13.834 8.3702 13.522 6.954-0.2554-1.1596-1.3608-2.7474-3.0748-4.6225 6.4499 3.5765 13.968 6.2259 13.253 4.9097-0.50822-0.93524-1.6046-2.0993-3.1611-3.4319 6.5836 2.5886 12.941 4.1345 11.927 2.964-0.64714-0.74719-1.7023-1.6179-3.1012-2.5775 7.0149 2.0484 13.443 3.0326 12.096 1.918-1.5855-1.3114-4.6284-2.9144-8.5932-4.6633 0.070572 0.015549 0.1412 0.036423 0.21201 0.051895 9.3958 2.0534 20.012 2.4495 17.714 1.2329-3.2901-1.7416-10.014-3.6774-18.175-5.5436 5.7809 0.22497 10.42 0.11205 12.955-0.50029 1.9362-0.46761-5.5403-2.5209-13.599-3.5426 1.846-0.27896 3.3248-0.62105 4.3332-1.0311 1.9104-0.7769-8.7782-2.5506-17.716-2.4152 2.597-0.60826 4.5662-1.2718 5.6646-1.9884 1.1813-0.77074-5.016-1.4543-11.737-1.2437 1.9332-0.80364 3.3387-1.5987 4.0501-2.3754 1.0022-1.0943-7.878-1.0482-15.08 0.45656 3.6856-1.8418 6.2653-3.6099 6.9422-5.1086 0.29022-0.64265-1.8373-0.69334-4.8112-0.28597 2.794-2.8118 4.5833-5.3868 3.6591-5.5102-1.5323-0.20454-4.0085 0.64134-7.0279 2.1782 5.2531-4.9276 10.14-12.296 8.563-12.059-1.2909 0.19412-3.1115 1.1471-5.2878 2.6431 4.3686-5.7432 7.7948-12.491 6.3005-11.884-1.0618 0.43114-2.4242 1.3937-3.9941 2.7643 3.2929-5.8971 5.4236-11.627 4.0688-10.744-0.86476 0.56353-1.8901 1.4984-3.0396 2.738 2.7292-6.3067 4.2533-12.113 2.9372-10.925-1.5485 1.3977-3.5158 4.1179-5.7076 7.6631 0.021896-0.063614 0.04879-0.1309 0.070625-0.19472 2.626-7.6758 3.8246-16.316 2.9153-16.343zm-29.378 43.374c0.006409 0.015083 0.0075 0.028503 0.013908 0.043495 0.025185 0.20375 0.05761 0.40955 0.087318 0.61894-0.20944-0.11888-0.41382-0.23724-0.63551-0.36177 0.25518-0.040489 0.4361-0.1343 0.53429-0.30066zm14.039-0.8342c0.18147 0.16418 0.37789 0.24156 0.58229 0.21445-0.19301 0.2708-0.36501 0.52206-0.52056 0.76521-0.017647-0.3154-0.040115-0.63992-0.061729-0.97966zm-25.246 15.111c0.33015 0.10551 0.64011 0.19236 0.93286 0.27134-0.33422 0.092056-0.68829 0.19333-1.0478 0.29478 0.13825-0.20063 0.18635-0.39149 0.11492-0.56612zm37.408 4.8701c-0.17436 0.17611-0.25248 0.35585-0.21603 0.53972-0.30368-0.15686-0.58601-0.29695-0.8581-0.42165 0.34574-0.037628 0.70177-0.07518 1.0741-0.11807zm-18.72 12.316c0.14754 0.28381 0.29646 0.58416 0.45776 0.88898-0.23746-0.088516-0.45151-0.090111-0.6309 0.005066 0.067505-0.31523 0.12908-0.61711 0.17313-0.89405z" stroke-width=".394" fill="#3f553c"/>
   <g id="g4596" opacity=".88">
    <path id="path4598" filter="url(#filter3036)" fill="#e0c6aa" d="m85.567 116.2l7.5584-0.7048c7.1831 56.897 12.076 136.08 18.681 172.39-8.1374 3.527-9.1579 3.7051-16.701 1.768 0.17236-37.614-6.2372-113.73-9.5379-173.46z"/>
    <path id="path4600" fill="url(#linearGradient4732)" d="m98.462 167.82c-3.1019 1.867-6.1809 2.2828-9.2428 1.7633 0.53718 7.7214 1.0862 15.497 1.6323 23.263 3.4441 0.60792 6.7118 0.053345 9.7967-1.6925-0.72229-7.8298-1.4466-15.651-2.1861-23.334zm2.3651 25.309c-3.3029 1.9899-6.5778 2.3418-9.8359 1.6628 0.54842 7.8254 1.0796 15.613 1.5631 23.247 3.6913 0.8066 7.1801 0.28502 10.464-1.5767-0.7421-7.6765-1.4681-15.495-2.1913-23.333zm2.2983 24.425c-3.5238 2.2425-7.012 2.5945-10.485 1.8012 0.49788 7.9381 0.93913 15.71 1.2862 23.184 4.1148 1.0498 7.9842 0.46727 11.599-1.7604-0.83256-7.4642-1.6266-15.257-2.4001-23.225zm2.536 24.458c-3.9275 2.5944-7.8161 2.8222-11.682 1.7124 0.36454 8.0552 0.6141 15.766 0.70242 22.96 4.9828 1.7364 9.6137 1.1438 13.885-1.7843-1.033-7.0864-1.9921-14.782-2.9055-22.888zm-9.693-98.533c-2.8087 1.5429-5.5988 1.9238-8.3747 1.5154 0.46217 7.5916 0.98198 15.386 1.5279 23.262 3.2362 0.5233 6.3118-0.00827 9.2293-1.5728-0.76878-7.9527-1.5569-15.736-2.3825-23.204zm12.759 122.53c-4.7264 3.4136-9.3931 3.3318-14.032 1.5421 0.085846 8.1793 0.41486 15.257 0.80164 22.415 7.3819 1.5445 10.006 1.3864 16.302-1.6537-0.84913-6.6534-1.7574-14.002-3.0718-22.304z"/>
   </g>
   <g stroke-width=".31" fill="#649537">
    <path id="path4604" opacity=".88" d="m87.816 100.01c0.13055-0.39806 0.013603-0.75624-0.37928-1.0488-0.16157-0.12028-0.32407-0.22352-0.49625-0.31015 0.63242-1.0991-0.21177-3.8114-2.3322-6.9892-2.7756-4.1598-8.4733-8.6552-8.7424-7.5594-0.26762 1.0895 0.31485 2.8846 1.4643 5.092-3.9479-3.9107-10.026-7.6349-9.914-6.5 0.091263 0.9293 0.80497 2.2632 1.969 3.8663-4.7054-3.3036-10.333-5.9619-9.897-4.8743 0.30972 0.77286 1.0588 1.7729 2.1505 2.9385-4.9021-2.5391-9.7262-4.2422-9.0434-3.2457 0.43584 0.63605 1.1819 1.398 2.1852 2.2588-5.2896-2.1487-10.216-3.4196-9.2677-2.4412 1.1163 1.1511 3.3442 2.643 6.2786 4.3212-0.053684-0.017662-0.10718-0.035004-0.16106-0.052612-7.1493-2.3367-15.414-3.4689-13.732-2.3371 2.4079 1.6203 7.4835 3.6567 13.685 5.7511-4.4957-0.62318-8.1277-0.89028-10.166-0.60593-1.5565 0.21711 4.0925 2.4015 10.293 3.8256-1.4684 0.076149-2.6571 0.22794-3.4833 0.47167-1.5652 0.46175 6.6196 2.6846 13.615 3.2691-2.0859 0.2764-3.6864 0.64533-4.6114 1.1225-0.99495 0.51324 3.787 1.5249 9.0579 1.8792-1.5855 0.48094-2.7613 0.9996-3.3896 1.5538-0.88526 0.78088 6.0556 1.4255 11.824 0.80184-3.0517 1.1598-5.2302 2.347-5.899 3.4702-0.59009 0.99102 7.0198 0.84222 12.157-0.73305 3.8528-1.1814 6.443-2.73 6.8347-3.9242zm-13.426-4.8552c-0.27369 0.002762-0.5566 0.006668-0.85156 0.011551 0.15268-0.12466 0.22821-0.26068 0.21688-0.40771 0.22263 0.14647 0.43372 0.2773 0.63468 0.39616z"/>
    <path id="path4606" opacity=".88" d="m83.6 105.67c-0.34116-0.26759-0.74976-0.31455-1.2124-0.10705-0.19022 0.085304-0.36384 0.17826-0.52505 0.28588-0.8241-0.96371-3.9003-1.3536-7.9948-0.87514-5.3599 0.62636-12.322 3.5339-11.344 4.196 0.97261 0.65824 3.0189 0.89666 5.7229 0.83168-5.6192 1.6954-11.975 5.2264-10.793 5.5894 0.96815 0.29727 2.6104 0.2422 4.7169-0.077187-5.341 2.5652-10.437 6.1516-9.1612 6.2275 0.90651 0.053925 2.2306-0.16427 3.8685-0.59936-4.6623 3.0344-8.4555 6.3398-7.1638 6.1749 0.82452-0.10523 1.9093-0.4164 3.2044-0.90067-4.4402 3.5114-7.8461 7.075-6.4572 6.683 1.6342-0.46126 4.0907-1.7048 7.0398-3.4577-0.040916 0.037277-0.081463 0.074554-0.1224 0.11204-5.4343 4.9735-10.148 11.352-8.2884 10.415 2.6629-1.3409 6.8982-4.7204 11.68-9.0077-2.5717 3.4669-4.4132 6.3626-5.0127 8.1618-0.45782 1.3739 4.1738-2.4203 8.285-6.9756-0.56049 1.2445-0.92416 2.2882-1.0388 3.069-0.21719 1.4792 5.5523-4.3961 9.1692-9.9454-0.6281 1.8354-0.95336 3.3066-0.87759 4.2628 0.081512 1.0285 3.1655-2.5193 5.8046-6.735-0.20681 1.5037-0.19829 2.6838 0.083084 3.4256 0.39648 1.0451 4.0496-4.4348 5.927-9.4536-0.16408 2.9882 0.077744 5.2655 0.91011 6.2689 0.73444 0.88535 3.8849-5.4659 4.5379-10.345 0.48972-3.6592 0.065308-6.4218-0.95816-7.2246zm-10.672 9.1525c-0.11587 0.22738-0.23462 0.46288-0.35764 0.70867-0.058365-0.17622-0.16152-0.29321-0.31335-0.34283 0.24289-0.12531 0.46511-0.24735 0.67098-0.36584z"/>
   </g>
   <path id="path4608" opacity=".88" fill="url(#linearGradient4734)" d="m92.912 127c-2.4478 6.3059-7.6822 7.7746-12.883 6.1786-5.2005-1.5959-8.4074-5.655-5.9597-11.961 2.4478-6.3059 8.655-10.128 13.856-8.5326 5.2005 1.5959 7.4346 8.0089 4.9868 14.315z"/>
   <path id="path4610" opacity=".88" d="m92.912 127c-2.4478 6.3059-7.6822 7.7746-12.883 6.1786-5.2005-1.5959-8.4074-5.655-5.9597-11.961 2.4478-6.3059 8.655-10.128 13.856-8.5326 5.2005 1.5959 7.4346 8.0089 4.9868 14.315z"/>
   <path id="path4612" opacity=".88" fill="url(#linearGradient4736)" d="m85.758 117.78c-4.5328 3.4515-8.7547 2.4981-11.558-0.56804-2.8034-3.0662-3.132-7.0897 1.4008-10.541 4.5328-3.4515 10.487-3.7642 13.29-0.69807 2.8034 3.0662 1.3998 8.3558-3.133 11.807z"/>
   <g stroke-width=".31" fill="#649537">
    <path id="path4614" opacity=".88" d="m98.381 103.11c0.14739 0.38863 0.47302 0.61414 0.98382 0.64076 0.21004 0.010948 0.40993 0.007706 0.6072-0.013985 0.18306 1.2172 2.6148 2.9467 6.3954 4.3736 4.9488 1.8679 12.518 2.4572 12.038 1.4351-0.47726-1.0162-2.1063-2.1482-4.4661-3.3108 5.7545 1.047 13.143 0.81596 12.325-0.035774-0.67018-0.69746-2.1119-1.3898-4.0968-2.0598 5.9894 0.15846 12.325-0.68957 11.27-1.3315-0.74986-0.45614-2.007-0.86192-3.6521-1.219 5.6618-0.55934 10.724-1.7483 9.524-2.1863-0.76613-0.27956-1.8683-0.49584-3.2455-0.65511 5.7309-1.0779 10.601-2.6682 9.1936-2.9507-1.6562-0.33238-4.4457-0.34939-7.9363-0.1416 0.055496-0.014252 0.11067-0.028694 0.16629-0.043098 7.3825-1.9124 14.912-5.3821 12.802-5.3993-3.02-0.024643-8.5028 1.03-14.95 2.6348 4.1005-1.8816 7.2619-3.5915 8.758-4.8996 1.1425-0.99887-4.9072 0.24084-10.924 2.383 1.1602-0.83902 2.0418-1.5907 2.5659-2.224 0.99306-1.1998-7.1691 1.3525-13.303 4.5897 1.5404-1.3269 2.622-2.4709 3.078-3.344 0.49056-0.93901-4.0944 0.7825-8.661 3.2906 0.99747-1.226 1.6334-2.2651 1.7959-3.0428 0.22887-1.0957-5.8985 2.0642-10.248 5.6205 1.7699-2.5475 2.8034-4.6545 2.6349-5.9102-0.14871-1.108-6.319 3.0431-9.5398 7.0289-2.4157 2.9893-3.5568 5.6044-3.1146 6.7703zm14.163-3.2163c0.22353-0.14721 0.45396-0.30026 0.69368-0.46042-0.045845 0.18096-0.020973 0.3301 0.082481 0.44212-0.27709 0.000389-0.53466 0.007225-0.77616 0.018295z"/>
    <path id="path4616" opacity=".88" d="m93.473 98.999c0.45445-0.01178 0.79771-0.22595 0.99465-0.65921 0.080986-0.17814 0.1438-0.35178 0.18648-0.52857 1.3312 0.2037 3.9418-1.3824 6.6834-4.2234 3.5887-3.7189 6.7106-10.081 5.4848-9.9706-1.2188 0.11012-2.94 1.1805-4.935 2.873 2.9987-4.6588 5.2043-11.109 4.0442-10.655-0.94999 0.37148-2.1502 1.4108-3.5068 2.926 2.1489-5.1258 3.3619-10.85 2.3423-10.129-0.72448 0.51202-1.5644 1.4771-2.4819 2.7919 1.2912-5.0563 1.7266-9.7821 0.87196-8.8757-0.54556 0.57859-1.1363 1.4662-1.7587 2.6083 0.77273-5.2702 0.72566-9.9493-0.035408-8.8175-0.89545 1.3316-1.837 3.7358-2.7761 6.8123 0.003487-0.052189 0.006668-0.10412 0.010048-0.15643 0.44868-6.9446-0.67963-14.479-1.3962-12.662-1.0259 2.601-1.7407 7.6499-2.2008 13.695-0.60617-4.1009-1.344-7.3396-2.214-9.0207-0.66431-1.2837-1.3737 4.3098-1.1303 10.144-0.49159-1.2514-0.98424-2.2363-1.4717-2.8773-0.92354-1.2144-0.96239 6.5939 0.38528 12.854-0.87495-1.7249-1.711-2.9991-2.4712-3.6525-0.81773-0.70284-0.53914 3.7689 0.56667 8.4586-0.94938-1.2259-1.8235-2.0841-2.5814-2.4556-1.0679-0.52341 0.20123 5.7081 2.473 10.522-2.0731-2.286-3.9302-3.8049-5.2968-4.0327-1.2058-0.20094 1.0839 6.3622 4.1778 10.329 2.3204 2.975 4.6723 4.738 6.0358 4.7026zm1.333-13.188c-0.079643-0.23686-0.16306-0.48138-0.25088-0.73602 0.17369 0.093391 0.33764 0.11623 0.48882 0.060181-0.091377 0.23943-0.16952 0.4639-0.23794 0.67584z"/>
   </g>
   <path id="path4618" opacity=".88" d="m85.758 117.78c-4.5328 3.4515-8.7547 2.4981-11.558-0.56804-2.8034-3.0662-3.132-7.0897 1.4008-10.541 4.5328-3.4515 10.487-3.7642 13.29-0.69807 2.8034 3.0662 1.3998 8.3558-3.133 11.807z"/>
   <path id="path4620" opacity=".88" d="m86.787 100.37c-0.27345-0.45786-0.73386-0.67845-1.3819-0.61579-0.26644 0.025749-0.51695 0.067352-0.7599 0.13148-0.50632-1.4863-3.955-3.1905-9.0301-4.2635-6.6434-1.4045-16.29-0.71933-15.455 0.46754 0.83042 1.1799 3.1346 2.2885 6.3642 3.2978-7.4697-0.22759-16.703 1.4485-15.481 2.359 1.0006 0.74558 2.9696 1.3399 5.6162 1.8041-7.5632 0.9267-15.333 3.1759-13.861 3.7798 1.0459 0.42911 2.7179 0.70003 4.8665 0.83717-6.9887 1.762-13.081 4.1981-11.473 4.52 1.0263 0.20543 2.4605 0.26868 4.2275 0.20904-6.9578 2.4229-12.718 5.3243-10.884 5.4129 2.1568 0.10429 5.6665-0.39832 10.006-1.3134-0.066517 0.028259-0.13257 0.056633-0.19921 0.085091-8.844 3.7755-17.519 9.5244-14.864 9.1498 3.801-0.53631 10.452-2.8835 18.191-6.0991-4.7263 3.1209-8.3114 5.8508-9.8948 7.766-1.2091 1.4625 6.1125-1.2224 13.188-5.0287-1.2677 1.2661-2.205 2.3708-2.72 3.2604-0.97573 1.6855 8.703-3.036 15.677-8.2324-1.6348 1.9471-2.7344 3.5795-3.1095 4.7559-0.40341 1.2653 4.9681-1.7465 10.138-5.7377-0.97534 1.719-1.5388 3.1368-1.5664 4.1389-0.039001 1.4119 6.9446-3.6866 11.604-8.9466-1.6462 3.5152-2.4669 6.3417-1.9701 7.879 0.43834 1.3564 7.2508-4.9886 10.394-10.573 2.3575-4.1884 3.1981-7.6701 2.3777-9.0436zm-17.069 6.6779c-0.2475 0.22591-0.5024 0.46039-0.76733 0.7055 0.016586-0.23466-0.048546-0.41637-0.204-0.53686 0.34816-0.052513 0.67028-0.10943 0.97132-0.16865z" stroke-width=".394" fill="#96c769"/>
   <path id="path4622" opacity=".88" fill="url(#linearGradient4738)" d="m101.46 120.15c-0.63812 6.6348-5.3224 9.2463-10.82 8.8975-5.4979-0.34882-9.7377-3.5265-9.0996-10.161 0.63811-6.6348 5.6181-11.736 11.116-11.388 5.4979 0.3488 9.442 6.0167 8.8039 12.652z"/>
   <g stroke-width=".394" fill="#96c769">
    <path id="path4624" opacity=".88" d="m93.596 99.387c-0.47082 0.31132-0.66307 0.75806-0.52646 1.3343 0.056175 0.23694 0.12791 0.45724 0.22349 0.66757-1.5685 0.6663-3.0651 4.0197-3.7015 8.7528-0.83309 6.1957 0.9303 14.809 2.1374 13.888 1.2001-0.9158 2.1671-3.1521 2.9285-6.21 0.53815 6.776 3.3392 14.876 4.2041 13.645 0.70819-1.0083 1.1494-2.8696 1.3773-5.3244 1.8076 6.6981 5.0799 13.396 5.5839 11.983 0.35815-1.0047 0.47772-2.5524 0.40113-4.5115 2.6585 6.0618 5.9582 11.22 6.1401 9.7226 0.11611-0.95549 0.034126-2.2593-0.217-3.8462 3.3764 5.9409 7.1489 10.733 7.0526 9.0654-0.1133-1.962-1.0312-5.06-2.4867-8.8493 0.037819 0.056076 0.075752 0.11172 0.11382 0.16786 5.051 7.4536 12.238 14.477 11.549 12.132-0.98541-3.3563-4.247-9.0311-8.5707-15.565 3.9031 3.828 7.2594 6.6806 9.5161 7.8407 1.7232 0.88588-1.9774-5.3467-6.8759-11.2 1.515 0.96634 2.8191 1.6572 3.8442 1.997 1.9419 0.64375-4.2292-7.4303-10.634-12.996 2.2968 1.202 4.1938 1.965 5.517 2.1381 1.4232 0.18616-2.4289-4.2397-7.3283-8.3457 1.9784 0.6387 3.5848 0.94785 4.6812 0.83184 1.5448-0.16349-4.7539-5.7512-10.984-9.2177 4.0091 0.99165 7.1798 1.3348 8.8049 0.66999 1.4339-0.58663-6.207-5.8444-12.632-7.8965-4.8186-1.539-8.7062-1.808-10.119-0.87413zm9.0841 14.471c0.27255 0.1917 0.55527 0.38882 0.85063 0.59352-0.25783 0.018028-0.44921 0.10241-0.56435 0.25972-0.093948-0.30694-0.18998-0.58978-0.28628-0.85324z"/>
    <path id="path4626" opacity=".88" d="m98.284 97.256c0.51831 0.22259 1.0386 0.15572 1.5321-0.23789 0.20286-0.16184 0.38249-0.32793 0.54144-0.50812 1.3686 0.92459 5.2992 0.46526 10.165-1.3624 6.3691-2.3924 13.873-8.0532 12.425-8.5631-1.4393-0.50703-4.0462-0.17592-7.3516 0.725 6.2958-3.7747 12.825-10.012 11.236-10.095-1.3012-0.06826-3.3029 0.49791-5.7792 1.5275 5.6337-4.7507 10.591-10.672 8.9922-10.377-1.1359 0.20972-2.686 0.87811-4.5428 1.9063 4.6258-5.1166 8.0821-10.299 6.5523-9.7059-0.9765 0.37883-2.1978 1.0879-3.6145 2.0719 4.1772-5.6306 7.0618-11.011 5.4957-10.111-1.8426 1.059-4.4104 3.3217-7.3975 6.3552 0.036667-0.057915 0.072876-0.11569 0.10951-0.17384 4.8642-7.7155 8.3258-16.925 6.3796-15.218-2.7862 2.4442-6.7595 7.8517-11.072 14.532 1.893-5.0086 3.0968-9.0988 3.1742-11.475 0.059082-1.8143-4.25 4.2194-7.6387 11.023 0.23303-1.6877 0.29746-3.0708 0.15186-4.0577-0.2759-1.8696-5.2215 7.0473-7.6366 14.913 0.099251-2.4287-0.040657-4.3214-0.48509-5.4642-0.47807-1.2292-2.9722 4.0338-4.6732 9.9758-0.29765-1.8963-0.74154-3.3326-1.3604-4.1515-0.87199-1.1538-3.3572 6.6378-3.8255 13.328-0.89539-3.6933-2.0295-6.3965-3.4229-7.367-1.2294-0.85632-2.7756 7.845-1.7878 13.992 0.74091 4.6104 2.2781 7.8499 3.833 8.5177zm9.778-14.402c0.059151-0.31244 0.11888-0.63564 0.18004-0.97272 0.13664 0.19713 0.3066 0.30843 0.51173 0.32278-0.25302 0.22661-0.4818 0.44296-0.69176 0.64994z"/>
    <path id="path4628" opacity=".88" d="m88.971 96.409c0.46069-0.32374 0.63834-0.77523 0.48288-1.3472-0.063919-0.23518-0.14288-0.45334-0.24533-0.66087 1.5469-0.7081 2.9338-4.0988 3.4155-8.8444 0.63056-6.2122-1.4146-14.769-2.5917-13.816-1.1703 0.94737-2.0642 3.2077-2.7257 6.2832-0.75978-6.7549-3.826-14.772-4.6507-13.518-0.6753 1.0264-1.0557 2.8979-1.2034 5.3565-2.0267-6.6426-5.5185-13.246-5.9762-11.82-0.32529 1.0134-0.39426 2.5628-0.25361 4.518-2.857-5.984-6.3257-11.047-6.4586-9.547-0.084877 0.95769 0.039772 2.258 0.34281 3.8366-3.571-5.8438-7.5005-10.529-7.3496-8.8658 0.17747 1.957 1.1968 5.0272 2.7763 8.7734-0.03968-0.055-0.07943-0.10957-0.11932-0.16464-5.2952-7.3096-12.712-14.132-11.947-11.808 1.0952 3.3264 4.5427 8.9074 9.0804 15.318-4.0286-3.7186-7.4785-6.4777-9.7733-7.5756-1.7523-0.8384 2.1525 5.288 7.2427 11.003-1.5468-0.92442-2.8736-1.5793-3.9098-1.891-1.9632-0.5906 4.4726 7.3086 11.06 12.696-2.3363-1.1386-4.2585-1.8496-5.5874-1.9868-1.4294-0.14747 2.5677 4.1699 7.6019 8.1393-1.9995-0.58455-3.6161-0.84997-4.7088-0.7044-1.5396 0.20513 4.9424 5.617 11.287 8.9115-4.0419-0.88219-7.224-1.1393-8.8276-0.43108-1.4148 0.62485 6.3986 5.6708 12.891 7.547 4.8694 1.4072 8.7661 1.5707 10.148 0.59946zm-9.5581-14.212c-0.27885-0.18412-0.56802-0.3734-0.87012-0.56992 0.25726-0.025002 0.44591-0.11448 0.5559-0.27473 0.10401 0.3041 0.2093 0.58405 0.31422 0.84465z"/>
   </g>
  </g>
 </g>
 <g id="g4672">
  <g stroke-linejoin="round" stroke-linecap="round">
   <g id="g3040">
    <path id="rect2956" filter="url(#filter3036)" fill="#e0c6aa" d="m198.4 102.09h8.7564c2.1568 66.116-0.70404 157.59 2.9935 200-9.7237 3.1794-10.915 3.2746-19.371 0.24204 4.2261-43.182 5.0157-131.29 7.6213-200.24z"/>
    <path id="path2993" fill="url(#linearGradient4732)" d="m207.68 162.75c-3.7626 1.8121-7.3434 1.9599-10.804 1.0353-0.20993 8.9257-0.41211 17.915-0.61653 26.893 3.8905 1.067 7.7029 0.78003 11.433-0.89473 0.008942-9.07 0.014664-18.13-0.011978-27.033zm0.006 29.321c-4.0066 1.9317-7.8055 1.9851-11.475 0.85638-0.20814 9.0463-0.4321 18.047-0.69435 26.867 4.1532 1.3217 8.2159 1.0962 12.187-0.69022-0.030212-8.8961-0.026764-17.954-0.017944-27.033zm0.0239 28.299c-4.2873 2.1982-8.3313 2.2289-12.235 0.94585-0.27829 9.1704-0.60374 18.143-1.0056 26.765 4.6135 1.6464 9.12 1.3917 13.51-0.77968-0.15688-8.6619-0.23425-17.697-0.26936-26.931zm0.2933 28.363c-4.7887 2.559-9.2791 2.4044-13.6 0.71579-0.44397 9.2906-0.98308 18.173-1.6521 26.446 5.5368 2.5279 10.919 2.3432 16.138-0.56241-0.42757-8.2494-0.70496-17.191-0.8859-26.599zm-0.5806-114.2c-3.3911 1.4713-6.6363 1.61-9.7808 0.84358-0.2822 8.7687-0.5199 17.776-0.73625 26.88 3.6608 0.9476 7.25 0.66646 10.768-0.81802-0.031296-9.2162-0.10294-18.24-0.2514-26.906zm1.5324 142.09c-5.7939 3.4144-11.145 2.8207-16.281 0.26843-0.77734 9.4033-1.1574 17.568-1.4798 25.83 8.3128 2.5645 11.343 2.6638 18.901-0.15338-0.26273-7.7325-0.51888-16.27-1.1395-25.945z"/>
   </g>
   <path id="path2913" stroke-width=".394" fill="#3f553c" d="m234.48 24.065c-0.10773-0.01334-0.24921 0.082535-0.43054 0.2881-2.7691 3.1389-6.392 9.808-10.174 17.975 1.2996-5.9553 1.9784-10.776 1.6542-13.499-0.2476-2.079-4.1412 5.3484-6.8434 13.54-0.026199-1.9561-0.19408-3.542-0.53252-4.6506-0.64119-2.1002-4.762 8.6923-6.1636 17.975-0.30833-2.7854-0.79881-4.924-1.5069-6.1733-0.76161-1.3437-2.7084 4.9792-3.6257 11.976-0.67076-2.128-1.4256-3.7106-2.2774-4.5683-0.27242-0.2743-0.56389-0.011417-0.83842 0.6482-1.1968-4.0836-2.5873-6.9494-3.1611-6.1219-0.80263 1.1576-1.2803 3.294-1.5069 6.1219-2.1866-7.7315-6.0674-15.475-6.6281-13.849-0.3985 1.1557-0.51413 2.9476-0.39656 5.2062-3.1596-7.0036-7.0409-12.97-7.2286-11.246-0.11981 1.1005-0.007645 2.6038 0.30591 4.4345-3.9867-6.8688-8.4184-12.417-8.2823-10.495 0.16003 2.262 1.2657 5.8402 3.0025 10.217-0.04451-0.064884-0.079849-0.13052-0.12463-0.19549-5.9426-8.623-14.346-16.772-13.517-14.065 1.1877 3.8746 5.04 10.436 10.129 17.995-4.5633-4.437-8.4809-7.7438-11.104-9.0954-2.0027-1.0321 2.3585 6.1764 8.1011 12.954-1.7636-1.1235-3.2756-1.9271-4.4641-2.3253-2.2516-0.75442 4.986 8.5865 12.463 15.042-2.6696-1.4-4.8713-2.2922-6.4015-2.5002-1.6459-0.2237 2.8705 4.9078 8.5883 9.6715-2.2937-0.74881-4.1517-1.1144-5.4158-0.98774-1.0249 0.10273 0.98514 2.288 4.2488 4.8975 0.64276 1.1511 1.5565 2.4506 2.7079 3.8583-6.944-4.6596-16.896-8.5463-16.372-6.945 0.42889 1.3113 1.8874 3.0528 4.0789 5.0724-7.8422-3.6061-16.805-6.0647-15.828-4.6094 0.69385 1.0342 2.0864 2.2948 4.0335 3.704-7.8813-2.4619-15.375-3.7448-14.072-2.4796 0.83197 0.80757 2.1414 1.723 3.8636 2.7163-8.3152-1.8084-15.821-2.4509-14.14-1.2758 1.978 1.3825 5.6667 2.9909 10.435 4.6917-0.083054-0.012405-0.16594-0.028862-0.24925-0.041153-11.057-1.6301-23.341-1.2598-20.553-0.041145 3.9907 1.7445 11.971 3.4381 21.584 4.9489-6.6823 0.18896-12.005 0.68551-14.854 1.5845-2.1751 0.68646 6.6688 2.455 16.066 3.0043-2.0931 0.46298-3.7585 0.97404-4.872 1.5228-2.1094 1.0395 10.402 2.2563 20.678 1.4096-2.9195 0.89904-5.1069 1.8088-6.2882 2.7163-1.2706 0.97602 5.95 1.2759 13.664 0.51444-2.1325 1.072-3.6673 2.099-4.3961 3.0455-1.0268 1.3336 9.1943 0.58661 17.312-1.6977-4.0296 2.3991-6.7934 4.6271-7.3986 6.3997-0.38185 1.1185 5.097 0.38574 10.775-1.3993-3.6455 5.4037-6.0817 11.784-4.6114 11.596 1.7752-0.22694 4.1936-1.884 6.9567-4.4654-3.9537 6.9703-6.5741 16.519-4.9173 15.793 1.3567-0.59432 3.0161-2.1778 4.8606-4.4654-2.6647 7.6068-3.8957 16.037-2.47 14.929 1.0131-0.78749 2.1449-2.2475 3.365-4.2184-1.4147 7.4587-1.6085 14.386-0.44188 13.015 0.74466-0.87505 1.53-2.1968 2.334-3.8995-0.63496 7.7431-0.12447 14.577 0.88376 12.882 1.1862-1.9944 2.3361-5.5571 3.4217-10.104-0.000198 0.076431 0 0.1497 0 0.22636-0.002274 10.172 2.3619 21.121 3.2404 18.427 1.2576-3.8564 1.8338-11.276 1.9374-20.135 1.2749 5.9598 2.6571 10.658 4.0902 13.067 1.0943 1.8398 1.6093-6.3764 0.70245-14.888 0.83824 1.8021 1.65 3.2156 2.4247 4.1258 1.4676 1.7245 0.78607-9.6919-1.7788-18.767 1.4446 2.4731 2.7901 4.2925 3.9656 5.2062 1.2643 0.98274 0.44218-5.533-1.6202-12.326 1.5065 1.74 2.8654 2.945 4.0109 3.4468 1.614 0.70699-0.84039-8.3264-4.6227-15.238 1.6167 1.6045 3.1402 2.9249 4.5094 3.8892 0.008209 0.005768 0.014465 0.014816 0.022659 0.020569 3.2426 2.831 6.1529 4.6185 6.3562 3.6937 0.35094-1.5964-0.57596-4.2277-2.3453-7.4491 5.9373 5.6927 14.992 11.095 14.786 9.4349-0.16919-1.3592-1.2687-3.3012-3.0365-5.6383 7.0248 4.7984 15.376 8.6464 14.695 7.0582-0.48354-1.1286-1.6181-2.5829-3.2631-4.2802 7.2842 3.6781 14.42 6.1344 13.381 4.6814-0.66324-0.92744-1.7819-2.0405-3.2857-3.2924 7.8374 3.1038 15.115 4.9226 13.687 3.4982-1.6806-1.6759-5.0037-3.8429-9.37-6.2762 0.079346 0.025429 0.15826 0.056953 0.23792 0.082298 10.571 3.3646 22.722 4.9564 20.213 3.313-3.5922-2.3526-11.108-5.296-20.281-8.3134 6.6154 0.87746 11.955 1.2446 14.933 0.81283 2.2739-0.3297-6.0932-3.4886-15.239-5.5251 2.15-0.1227 3.8851-0.35721 5.0872-0.72022 2.2774-0.68771-9.8088-3.8694-20.088-4.6712 3.0478-0.42049 5.3806-0.97171 6.7188-1.6771 1.4393-0.75868-5.6052-2.2074-13.347-2.6854 2.3064-0.71596 4.0058-1.4786 4.906-2.2944 1.2683-1.1495-8.9358-2.0475-17.369-1.0906 4.4303-1.7206 7.5824-3.4751 8.5203-5.1239 0.40214-0.70701-2.0359-0.99306-5.4951-0.84368 3.5101-2.9302 5.8409-5.696 4.7927-5.9367-1.738-0.39902-4.6726 0.30729-8.305 1.7491 6.561-5.0968 12.962-13.037 11.126-12.933-1.5034 0.084705-3.6965 0.98427-6.3562 2.4693 5.6325-6.1284 10.29-13.511 8.509-12.974-1.2657 0.38147-2.9335 1.341-4.8833 2.7472 4.4135-6.4203 7.4742-12.773 5.8237-11.904-1.0536 0.55461-2.3313 1.5186-3.7843 2.8192 3.8099-6.9511 6.1822-13.457 4.5434-12.234-1.9282 1.4394-4.4789 4.353-7.3759 8.1899 0.031967-0.070709 0.070053-0.1451 0.10197-0.21608 3.838-8.5345 6.1399-18.329 5.0986-18.458zm-38.386 46.67c0.005753 0.018013 0.005554 0.033554 0.011322 0.051437 0.007095 0.23672 0.022293 0.47654 0.033997 0.72021-0.22781-0.15896-0.44988-0.31678-0.69115-0.48355 0.29739-0.019165 0.51523-0.10755 0.64583-0.28809zm16.213 0.5453c0.19084 0.20801 0.40816 0.31792 0.64581 0.30868-0.25067 0.29035-0.47513 0.56052-0.67981 0.82311 0.013504-0.36413 0.022446-0.73926 0.033997-1.1318zm-30.614 14.651c0.36789 0.15652 0.7146 0.28947 1.0424 0.41154-0.39374 0.069908-0.81122 0.14833-1.235 0.22636 0.18027-0.21563 0.25597-0.4297 0.19261-0.6379zm42.443 9.5995c-0.21912 0.18359-0.32809 0.38166-0.30592 0.59674-0.33198-0.21268-0.64125-0.40382-0.9404-0.57617 0.40114-0.00618 0.81406-0.0112 1.2463-0.020569zm-22.819 12.141c0.13902 0.34177 0.27791 0.70267 0.43054 1.07-0.26326-0.1271-0.50893-0.15183-0.72513-0.061729 0.11127-0.35484 0.21434-0.69495 0.29459-1.0083z"/>
   <g stroke-width=".31" fill="#649537">
    <path id="path2924" d="m202.72 83.728c0.19257-0.4432 0.096603-0.86711-0.32332-1.2452-0.17267-0.15545-0.34825-0.29141-0.53673-0.40936 0.84406-1.1946 0.16493-4.4002-1.93-8.277-2.7424-5.0748-8.8048-10.848-9.2313-9.6184-0.42404 1.2227 0.052704 3.3468 1.1365 6.0051-4.1154-4.9144-10.697-9.8425-10.69-8.5271 0.005295 1.0771 0.68216 2.6855 1.8474 4.6514-5.0504-4.2982-11.229-7.9539-10.845-6.6581 0.27293 0.92079 1.0262 2.1496 2.1552 3.6052-5.3582-3.4412-10.716-5.9138-10.039-4.6962 0.43245 0.7772 1.2077 1.7322 2.2679 2.8283-5.8451-3.0343-11.368-5.0216-10.383-3.7963 1.1589 1.4416 3.5579 3.3936 6.7484 5.6353-0.059769-0.026024-0.11937-0.051685-0.17935-0.077671-7.9609-3.4494-17.332-5.6348-15.521-4.1548 2.592 2.1188 8.2033 5.0012 15.102 8.0709-5.0966-1.1972-9.2395-1.8929-11.611-1.7846-1.8109 0.082687 4.4431 3.1964 11.412 5.4961-1.6946-0.069778-3.0762-0.022743-4.0512 0.16872-1.8471 0.36269 7.3153 3.7922 15.287 5.2127-2.4253 0.094063-4.303 0.34638-5.4166 0.79537-1.1977 0.4829 4.1862 2.157 10.202 3.1283-1.8725 0.38255-3.2785 0.85232-4.0594 1.4216-1.1004 0.80205 6.8023 2.2857 13.494 2.1871-3.6291 1.0052-6.2584 2.1354-7.1467 3.3539-0.78386 1.075 7.9722 1.7191 14.041 0.45996 4.5515-0.94432 7.6924-2.4455 8.27-3.7751zm-14.9-7.0141c-0.31461-0.026115-0.63998-0.051941-0.97926-0.077927 0.1887-0.12682 0.29002-0.27494 0.29277-0.44504 0.24 0.19209 0.46843 0.36494 0.68649 0.52296z"/>
    <path id="path2926" d="m197.27 89.778c-0.36317-0.34385-0.82742-0.44156-1.381-0.25278-0.22762 0.077621-0.43697 0.16578-0.63365 0.27211-0.84331-1.1951-4.3346-1.9723-9.0885-1.8613-6.223 0.14541-14.53 2.7392-13.478 3.6043 1.0466 0.86017 3.3712 1.3531 6.4838 1.5681-6.6354 1.3454-14.314 4.7202-12.994 5.2638 1.0801 0.4451 2.9722 0.55774 5.4258 0.4165-6.4089 2.3742-12.646 5.9476-11.189 6.1713 1.0354 0.159 2.5794 0.050209 4.5072-0.2741-5.6797 2.9858-10.39 6.3758-8.889 6.3248 0.95825-0.032539 2.2375-0.27377 3.7768-0.69126-5.4757 3.5574-9.7691 7.2856-8.1319 6.984 1.9263-0.35475 4.8809-1.5199 8.4556-3.2174-0.05098 0.038452-0.10153 0.076927-0.15257 0.11559-6.774 5.1302-12.872 11.951-10.635 11.075 3.202-1.2549 8.4282-4.6827 14.379-9.0948-3.3249 3.7064-5.75 6.8349-6.6313 8.8372-0.67296 1.529 5.0529-2.3328 10.263-7.1244-0.77699 1.3693-1.3065 2.5291-1.5217 3.4136-0.40787 1.6757 6.8477-4.4544 11.596-10.441-0.91792 2.0407-1.449 3.6956-1.4644 4.8019-0.016541 1.1899 3.9055-2.5545 7.3879-7.1136-0.39856 1.7049-0.51515 3.0612-0.27141 3.9432 0.34343 1.2428 5.126-4.6597 7.8197-10.223-0.50847 3.4144-0.47461 6.0558 0.37393 7.2974 0.7487 1.0955 5.0472-5.8617 6.3197-11.395 0.95436-4.1502 0.76274-7.3686-0.32677-8.4002zm-13.237 9.369c-0.15742 0.24873-0.31903 0.50648-0.48663 0.77562-0.048172-0.20867-0.15411-0.35407-0.32317-0.42732 0.29237-0.1179 0.56067-0.23428 0.8098-0.3483z"/>
   </g>
   <path id="path3061" fill="url(#linearGradient4588)" d="m205.68 115.27c-3.4866 6.9803-9.6557 8.1065-15.458 5.7167-5.8019-2.3898-9.0505-7.3952-5.5639-14.376 3.4866-6.9803 11.025-10.706 16.827-8.316 5.802 2.3898 7.6811 9.9946 4.1945 16.975z"/>
   <path id="path3101" opacity=".35" d="m205.68 115.27c-3.4866 6.9803-9.6557 8.1065-15.458 5.7167-5.8019-2.3898-9.0505-7.3952-5.5639-14.376 3.4866-6.9803 11.025-10.706 16.827-8.316 5.802 2.3898 7.6811 9.9946 4.1945 16.975z"/>
   <path id="path3057" fill="url(#linearGradient4584)" d="m198.45 103.92c-5.5757 3.4787-10.322 1.9316-13.214-1.8902-2.8914-3.8218-2.838-8.4781 2.7377-11.957 5.5757-3.4787 12.448-3.2002 15.339 0.62154 2.8914 3.8218 0.71292 9.7468-4.8628 13.225z"/>
   <g stroke-width=".31" fill="#649537">
    <path id="path2928" d="m214.52 88.426c0.12767 0.46211 0.47751 0.756 1.0613 0.84129 0.24004 0.035072 0.46999 0.052734 0.69885 0.048943 0.079926 1.4176 2.6876 3.6643 6.8769 5.7081 5.4838 2.6753 14.114 4.1628 13.673 2.9375-0.43933-1.2182-2.189-2.6929-4.7748-4.2808 6.497 1.8188 15.008 2.3447 14.159 1.2788-0.69502-0.87281-2.2767-1.8224-4.4847-2.8044 6.862 0.8234 14.229 0.52791 13.086-0.32235-0.81238-0.60421-2.2127-1.2049-4.064-1.7911 6.5627-0.036087 12.504-0.85949 11.173-1.491-0.84994-0.40314-2.0926-0.76956-3.6574-1.1 6.6975-0.62426 12.462-1.9292 10.875-2.4044-1.8666-0.55909-5.0686-0.87736-9.0998-1.0125 0.065277-0.010437 0.13016-0.021111 0.19562-0.031708 8.6838-1.4058 17.703-4.5845 15.282-4.8302-3.4659-0.35172-9.876 0.27239-17.453 1.425 4.911-1.722 8.725-3.3472 10.584-4.6893 1.4192-1.0249-5.6618-0.2489-12.802 1.567 1.4223-0.83938 2.5153-1.6082 3.1852-2.2795 1.269-1.2716-8.3788 0.78564-15.771 3.8467 1.9113-1.359 3.276-2.5571 3.8933-3.511 0.66397-1.026-4.7864 0.46026-10.3 2.8518 1.2769-1.3012 2.1186-2.4266 2.3885-3.3024 0.38022-1.2339-6.9956 1.739-12.372 5.3577 2.3056-2.7364 3.7183-5.0456 3.6592-6.5059-0.052155-1.2884-7.5834 2.8184-11.709 7.0512-3.0946 3.1746-4.6852 6.0559-4.3022 7.4423zm16.611-2.1773c0.27249-0.14516 0.55356-0.29625 0.84604-0.45453-0.072067 0.20292-0.059448 0.37689 0.047394 0.51662-0.3183-0.029228-0.61485-0.048965-0.89343-0.062088z"/>
    <path id="path2930" d="m209.32 83.178c0.52322 0.035141 0.94037-0.1741 1.213-0.65062 0.11208-0.19592 0.20282-0.38859 0.27078-0.58709 1.507 0.37652 4.6753-1.1656 8.1283-4.135 4.52-3.8869 8.787-10.86 7.3672-10.864-1.4116-0.004044-3.503 1.041-5.9756 2.7712 3.9429-5.0296 7.167-12.201 5.7859-11.805-1.1309 0.32492-2.6206 1.3901-4.341 2.985 3.017-5.657 5.0231-12.101 3.775-11.383-0.88692 0.51049-1.9549 1.529-3.1495 2.9408 2.0244-5.669 3.0306-11.05 1.952-10.1-0.68854 0.60609-1.4621 1.5623-2.2992 2.8074 1.4519-5.9701 1.8989-11.349 0.9036-10.131-1.171 1.4335-2.5099 4.094-3.9179 7.5268 0.009598-0.059555 0.018845-0.11887 0.02832-0.1786 1.259-7.928 0.77-16.702-0.24762-14.692-1.4568 2.8774-2.8185 8.5997-3.9943 15.494-0.25705-4.7748-0.75763-8.5736-1.5768-10.598-0.6255-1.5455-2.0393 4.8028-2.3845 11.529-0.43057-1.49-0.89092-2.6738-1.3822-3.4622-0.93068-1.4936-1.8115 7.4702-0.93408 14.805-0.82019-2.0748-1.6439-3.6277-2.4471-4.4596-0.86391-0.89479-1.0228 4.2709-0.255 9.7755-0.95909-1.5097-1.8711-2.589-2.7019-3.0968-1.1705-0.71552-0.38016 6.5774 1.7135 12.35-2.1362-2.8475-4.1064-4.791-5.6516-5.1988-1.3634-0.35992 0.56354 7.4232 3.6921 12.31 2.3464 3.6654 4.8588 5.942 6.4286 6.0474zm2.9433-15.004c-0.066101-0.28053-0.13574-0.5703-0.2093-0.8722 0.18947 0.12588 0.37532 0.16968 0.55496 0.12148-0.13058 0.26522-0.24438 0.51466-0.34566 0.75072z"/>
   </g>
   <path id="path3105" opacity=".284" d="m198.45 103.92c-5.5757 3.4787-10.322 1.9316-13.214-1.8902-2.8914-3.8218-2.838-8.4781 2.7377-11.957 5.5757-3.4787 12.448-3.2002 15.339 0.62154 2.8914 3.8218 0.71292 9.7468-4.8628 13.225z"/>
   <path id="path2940" stroke-width=".394" fill="#96c769" d="m201.5 84.035c-0.26503-0.55515-0.7702-0.85783-1.5212-0.85526-0.30878 0.001053-0.60092 0.021996-0.88683 0.069656-0.42236-1.7613-4.2007-4.0879-9.9147-5.8637-7.4797-2.3246-18.633-2.5707-17.8-1.1182 0.82741 1.4441 3.3551 2.964 6.9562 4.4692-8.5547-1.0614-19.339-0.12512-18.033 1.0514 1.0693 0.96346 3.2671 1.8569 6.2571 2.6736-8.7858 0.25437-17.95 2.0055-16.325 2.8567 1.1553 0.60483 3.0466 1.095 5.4996 1.4827-8.2154 1.2753-15.474 3.4208-13.661 3.9625 1.1567 0.34587 2.7972 0.57208 4.833 0.69283-8.2506 2.0376-15.177 4.7531-13.081 5.0512 2.466 0.35075 6.5508 0.14936 11.633-0.43686-0.079422 0.02533-0.15831 0.05085-0.23792 0.076393-10.562 3.3891-21.141 9.0628-18.052 8.9169 4.423-0.2089 12.314-2.1924 21.546-5.0569-5.7625 3.0783-10.172 5.8297-12.196 7.8598-1.5453 1.5503 7.1513-0.74933 15.686-4.3632-1.5915 1.3184-2.7864 2.4867-3.4732 3.4534-1.3012 1.8314 10.321-2.5549 18.888-7.7762-2.0861 2.0612-3.5238 3.8183-4.0806 5.1293-0.59882 1.41 5.893-1.4738 12.258-5.5041-1.3043 1.8698-2.1032 3.4378-2.2423 4.5858-0.196 1.6175 8.3708-3.4904 14.286-9.0326-2.2672 3.861-3.5124 7.0194-3.1065 8.8382 0.3582 1.6047 8.862-4.953 13.07-11.03 3.1562-4.5581 4.4944-8.4667 3.6994-10.132zm-20.32 5.8417c-0.30849 0.23296-0.62633 0.47497-0.95685 0.72811 0.044174-0.26775-0.011185-0.4834-0.1768-0.63846 0.40549-0.023026 0.78156-0.053894 1.1336-0.089653z"/>
   <path id="path3046" fill="url(#linearGradient4577)" d="m216.23 108.33c-1.4434 7.5519-7.103 10.05-13.38 9.0602-6.277-0.98938-10.806-5.093-9.3629-12.645 1.4434-7.5519 7.7094-12.878 13.986-11.888 6.2771 0.98938 10.2 7.9214 8.7566 15.473z"/>
   <g stroke-width=".394" fill="#96c769">
    <path id="path2942" d="m209.42 83.637c-0.5741 0.30713-0.84273 0.79961-0.74754 1.4761 0.039139 0.27813 0.097961 0.53886 0.1852 0.79065-1.8729 0.59728-3.9508 4.2885-5.1886 9.6564-1.6203 7.0266-0.51744 17.108 0.96759 16.179 1.4764-0.92328 2.8266-3.3882 4.0285-6.8187-0.10759 7.8401 2.242 17.443 3.3672 16.122 0.92136-1.0822 1.6274-3.1728 2.1521-5.9677 1.3587 7.8865 4.3997 15.93 5.13 14.36 0.51889-1.1155 0.82196-2.8803 0.94382-5.1386 2.4042 7.2468 5.6417 13.524 6.0109 11.824 0.23567-1.085 0.28113-2.5912 0.16266-4.4407 3.2417 7.1848 7.0612 13.093 7.1292 11.167 0.079987-2.2655-0.64255-5.9219-1.9083-10.43 0.03743 0.068451 0.075043 0.13641 0.11275 0.20499 5.003 9.1015 12.505 17.938 11.965 15.171-0.77234-3.9603-3.9106-10.827-8.1767-18.795 4.0729 4.8145 7.6222 8.4503 10.09 10.024 1.8843 1.202-1.6986-6.3526-6.6977-13.599 1.6366 1.2721 3.0604 2.2052 4.2012 2.7053 2.1614 0.94733-4.0616-8.9868-10.821-16.065 2.5092 1.6264 4.6063 2.706 6.1074 3.0465 1.6146 0.36623-2.3356-5.1295-7.523-10.37 2.2039 0.94543 4.0157 1.4726 5.2874 1.4567 1.7918-0.022331-4.8441-7.1144-11.628-11.763 4.4983 1.5683 8.1032 2.302 10.041 1.7124 1.7097-0.52021-6.5029-7.3771-13.662-10.422-5.3695-2.2836-9.8057-3.0089-11.528-2.0876zm8.8835 17.594c0.29251 0.24935 0.59608 0.50604 0.91341 0.77277-0.29805-0.006889-0.5269 0.069534-0.676 0.23786-0.075027-0.36259-0.15503-0.69772-0.23741-1.0106z"/>
    <path id="path2944" d="m215.04 81.692c0.57144 0.31116 1.1762 0.29007 1.7851-0.10914 0.25032-0.16415 0.47441-0.33568 0.67628-0.5256 1.4728 1.2085 6.0364 1.1018 11.82-0.47622 7.5713-2.0657 16.796-7.7635 15.188-8.5043-1.5987-0.73646-4.6283-0.63536-8.521 0.04538 7.6351-3.6611 15.802-10.125 13.985-10.391-1.4871-0.21775-3.8468 0.21815-6.8011 1.1354 6.9792-4.8529 13.307-11.123 11.439-10.955-1.3271 0.11924-3.1789 0.72089-5.4217 1.703 5.8608-5.3812 10.385-10.964 8.5648-10.446-1.1621 0.33053-2.6408 1.0141-4.3732 1.9926 5.4006-6.0196 9.2898-11.89 7.3947-11.024-2.2297 1.019-5.4212 3.3428-9.1768 6.5069 0.048325-0.062569 0.096085-0.12505 0.14441-0.1879 6.4128-8.3406 11.375-18.548 8.9568-16.795-3.4617 2.5088-8.6042 8.294-14.273 15.505 2.7106-5.5498 4.5312-10.119 4.8745-12.839 0.26215-2.0775-5.333 4.3909-9.9537 11.842 0.44836-1.9134 0.67049-3.4951 0.60893-4.6441-0.11664-2.1769-6.7517 7.5348-10.368 16.31 0.37408-2.7788 0.41609-4.9676 0.02803-6.3277-0.41742-1.463-3.8456 4.3146-6.4356 10.957-0.13876-2.2098-0.49478-3.907-1.1179-4.9138-0.87791-1.4186-4.5667 7.2641-5.8209 14.898-0.63287-4.3377-1.646-7.5638-3.1423-8.8277-1.3203-1.1152-4.028 8.7129-3.5517 15.879 0.35719 5.3745 1.7758 9.2598 3.4901 10.193zm12.773-15.494c0.1014-0.35251 0.20459-0.71732 0.31094-1.0979 0.13579 0.24104 0.31908 0.38708 0.55316 0.42553-0.31486 0.23316-0.60082 0.45713-0.8641 0.67239z"/>
    <path id="path2946" d="m204.43 79.722c0.56378-0.3225 0.81616-0.82201 0.69888-1.4956-0.048218-0.27695-0.11557-0.53596-0.21101-0.7853 1.8525-0.64759 3.8086-4.3933 4.87-9.7922 1.3895-7.0673-0.043091-17.114-1.497-16.146-1.4456 0.96275-2.7143 3.4631-3.8034 6.9245-0.14925-7.8395-2.8124-17.375-3.8937-16.024-0.88551 1.1066-1.5228 3.2153-1.9557 6.0232-1.6164-7.8463-4.9195-15.804-5.598-14.215-0.48213 1.1291-0.72726 2.9012-0.77512 5.1618-2.6405-7.1787-6.0821-13.366-6.3955-11.657-0.20004 1.0909-0.19614 2.5976-0.017151 4.4432-3.4756-7.0941-7.4869-12.896-7.4918-10.97-0.005753 2.2667 0.83621 5.902 2.249 10.374-0.039673-0.067432-0.079483-0.13436-0.11942-0.20188-5.2988-8.9624-13.087-17.592-12.457-14.841 0.90172 3.9377 4.2635 10.717 8.7886 18.566-4.2288-4.7024-7.8956-8.2407-10.414-9.7474-1.9228-1.1506 1.9058 6.3039 7.1401 13.412-1.6775-1.2274-3.1312-2.1216-4.288-2.5906-2.1915-0.88854 4.3542 8.8731 11.343 15.766-2.5613-1.558-4.6929-2.5804-6.2045-2.8802-1.6259-0.32246 2.5025 5.0642 7.8592 10.162-2.2339-0.88549-4.0622-1.3635-5.3328-1.3133-1.7902 0.070709 5.075 6.9804 12.008 11.444-4.5477-1.4461-8.175-2.0821-10.092-1.4405-1.6919 0.56615 6.7417 7.1982 13.998 10.048 5.4419 2.1376 9.8999 2.7428 11.591 1.7753zm-9.4558-17.346c-0.30055-0.24133-0.6124-0.4897-0.93831-0.74774 0.29814-0.001175 0.5244-0.083748 0.66791-0.25601 0.086884 0.3604 0.17781 0.69321 0.2704 1.0038z"/>
   </g>
  </g>
 </g>
 <g stroke="#fffeff" fill="none">
  <path id="path3317" opacity=".577" d="m177.23 224.31c-6.8341 1.8117-12.859-6.0193-19.593-2.6748-4.6585 1.8444-10.684 5.8405-15.605 2.6748"/>
  <path id="path3319" opacity=".577" d="m229.36 228.2c6.8341 1.8117 12.859-6.0193 19.593-2.6747 4.6584 1.8444 10.684 5.8405 15.605 2.6747"/>
  <path id="path3321" opacity=".577" d="m408.61 229.26c6.8341 1.8117 12.859-6.0193 19.593-2.6748 4.6585 1.8444 10.684 5.8405 15.605 2.6748"/>
  <path id="path3323" opacity=".577" d="m465.89 225.01c6.834 1.8117 12.859-6.0192 19.593-2.6747 4.6584 1.8444 10.684 5.8405 15.605 2.6747"/>
  <path id="path3325" opacity=".577" d="m653.61 233.26c6.834 1.8117 12.859-6.0193 19.593-2.6748 4.6584 1.8444 10.684 5.8405 15.605 2.6748"/>
  <path id="path3327" opacity=".577" d="m710.89 229.01c6.834 1.8117 12.859-6.0193 19.593-2.6747 4.6584 1.8444 10.684 5.8405 15.605 2.6747"/>
  <g stroke-width=".899">
   <path id="path3329" opacity=".577" d="m816.56 228.43c6.1465 1.6295 11.565-5.4137 17.622-2.4057 4.1898 1.6589 9.6088 5.2529 14.035 2.4057"/>
   <path id="path3331" opacity=".577" d="m868.07 224.61c6.1465 1.6295 11.565-5.4137 17.622-2.4057 4.1898 1.6589 9.6088 5.2529 14.035 2.4057"/>
  </g>
  <g stroke-width=".718">
   <path id="path3333" opacity=".577" d="m153.78 213.62c4.9084 1.3012 9.2358-4.3232 14.072-1.9211 3.3459 1.3247 7.6733 4.1948 11.208 1.9211"/>
   <path id="path3335" opacity=".577" d="m110.22 214.67c4.9084 1.3012 9.2358-4.3232 14.072-1.9211 3.3459 1.3247 7.6733 4.1948 11.208 1.9211"/>
   <path id="path3337" opacity=".577" d="m47.217 218.67c4.9084 1.3012 9.2358-4.3232 14.072-1.9211 3.3458 1.3247 7.6733 4.1948 11.208 1.9211"/>
   <path id="path3339" opacity=".577" d="m407.22 210.17c4.9084 1.3012 9.2358-4.3232 14.072-1.9211 3.3459 1.3247 7.6733 4.1948 11.208 1.9211"/>
   <path id="path3341" opacity=".577" d="m345.22 216.17c4.9084 1.3012 9.2358-4.3232 14.072-1.9211 3.3459 1.3247 7.6733 4.1948 11.208 1.9211"/>
   <path id="path3343" opacity=".577" d="m508.72 213.17c4.9084 1.3012 9.2358-4.3232 14.072-1.9211 3.3459 1.3247 7.6733 4.1948 11.208 1.9211"/>
   <path id="path3345" opacity=".577" d="m561.72 221.67c4.9084 1.3012 9.2358-4.3232 14.072-1.9211 3.3459 1.3247 7.6733 4.1948 11.208 1.9211"/>
   <path id="path3347" opacity=".577" d="m639.22 217.67c4.9084 1.3012 9.2358-4.3232 14.072-1.9211 3.3459 1.3247 7.6733 4.1948 11.208 1.9211"/>
   <path id="path3349" opacity=".577" d="m694.72 218.17c4.9084 1.3012 9.2358-4.3232 14.072-1.9211 3.3459 1.3247 7.6733 4.1948 11.208 1.9211"/>
   <path id="path3351" opacity=".577" d="m773.72 215.17c4.9084 1.3012 9.2358-4.3232 14.072-1.9211 3.3459 1.3247 7.6733 4.1948 11.208 1.9211"/>
  </g>
  <g stroke-width=".566">
   <path id="path3353" opacity=".577" d="m309.14 209.06c3.8701 1.026 7.282-3.4086 11.095-1.5147 2.6381 1.0445 6.0501 3.3074 8.837 1.5147"/>
   <path id="path3355" opacity=".577" d="m230.14 210.56c3.8701 1.026 7.282-3.4086 11.095-1.5147 2.6381 1.0445 6.05 3.3074 8.8369 1.5147"/>
   <path id="path3357" opacity=".577" d="m63.641 208.06c3.8701 1.026 7.282-3.4086 11.095-1.5147 2.638 1.0445 6.05 3.3074 8.8369 1.5147"/>
  </g>
  <g stroke-width=".442">
   <path id="path3359" opacity=".577" d="m447.58 207.27c3.0205 0.80074 5.6834-2.6603 8.6597-1.1822 2.059 0.8152 4.7219 2.5814 6.897 1.1822"/>
   <path id="path3361" opacity=".577" d="m549.08 207.27c3.0204 0.80074 5.6834-2.6603 8.6597-1.1822 2.0589 0.8152 4.7219 2.5814 6.897 1.1822"/>
   <path id="path3363" opacity=".577" d="m616.08 206.27c3.0204 0.80074 5.6834-2.6603 8.6597-1.1822 2.0589 0.8152 4.7219 2.5814 6.897 1.1822"/>
  </g>
 </g>
</svg>
